# xmcd
#
# Track frame offsets:
#	150
#	19526
#	40120
#	61022
#	80579
#	100086
#	120704
#	140751
#	159825
#	179079
#	201176
#	224124
#	244586
#	265280
#	285300
#	305456
#	325812
#
# Disc length: 4662 seconds
#
# Revision: 0
# Processed by: cddbd v1.4PL0 Copyright (c) Steve Scherf et al.
# Submitted via: EasyCDDAExtractor 4.5.2.1
#
DISCID=f0123411
DTITLE=Keiko Matsu - Instrumental
DYEAR=1900
DGENRE=Instrumental
TTITLE0=Bridge over the stars
TTITLE1=Accros the sun
TTITLE2=Crescent night dreams
TTITLE3=Mountain Shakedown
TTITLE4=The morning moon
TTITLE5=Bonfire in the piano
TTITLE6=Midnight stone
TTITLE7=Steps in the night
TTITLE8=Under nothern light
TTITLE9=Night hawks dream
TTITLE10=Spirit at the corner
TTITLE11=Souvenir
TTITLE12=Whisper from the mirror
TTITLE13=Secret forest
TTITLE14=Light in the rain
TTITLE15=Kappa
TTITLE16=The wind and the world
EXTD=
EXTT0=
EXTT1=
EXTT2=
EXTT3=
EXTT4=
EXTT5=
EXTT6=
EXTT7=
EXTT8=
EXTT9=
EXTT10=
EXTT11=
EXTT12=
EXTT13=
EXTT14=
EXTT15=
EXTT16=
PLAYORDER=
